<?xml version="1.0" encoding="utf-8"?>
<!-- Generator: Adobe Illustrator 19.2.0, SVG Export Plug-In . SVG Version: 6.00 Build 0)  -->
<svg version="1.0" id="Calque_1" xmlns="http://www.w3.org/2000/svg" xmlns:xlink="http://www.w3.org/1999/xlink" x="0px" y="0px"
	 viewBox="0 0 527.4 425.4" style="enable-background:new 0 0 527.4 425.4;" xml:space="preserve">
<style type="text/css">
	.st0{fill:none;stroke:#000000;stroke-width:11;}
</style>
<g>
	<path d="M121.1,288.8l17.3,39.9l17.3-39.9l9.6,50.2h-5.4l-6.1-32.1h-0.1L138.3,341l-15.2-34.1H123l-6.1,32.1h-5.4L121.1,288.8z"/>
	<path d="M186,325.5l-5.7,13.5h-5.8l21.9-49.8l21.4,49.8h-5.9l-5.6-13.5H186z M196.3,301.6l-8.1,19h16.1L196.3,301.6z"/>
	<path d="M230.5,291.5h8.9c7.1,0,12.9,0.9,18.5,5.7c5.4,4.7,7.9,11,7.9,18.1c0,6.9-2.5,13-7.7,17.7c-5.7,5-11.3,6-18.8,6h-8.8V291.5
		z M239.6,334.1c5.8,0,10.6-0.8,15-4.9c3.9-3.7,5.9-8.6,5.9-13.9c0-5.4-2.1-10.6-6.2-14.2c-4.3-3.8-9.1-4.6-14.7-4.6h-3.8v37.7
		H239.6z"/>
	<path d="M280.8,291.5h24.6v4.9h-19.3v14.1h18.8v4.9h-18.8v18.6h19.3v4.9h-24.6V291.5z"/>
	<path d="M354.3,339h-5.3v-47.5h5.3V339z"/>
	<path d="M371.9,289.5l37,38.8v-36.8h5.3v49.6l-37-38.7V339h-5.3V289.5z"/>
	<path d="M35,409.7h13.1v4.9H29.7v-47.5H35V409.7z"/>
	<path d="M66.1,395.4c0,3.5-0.1,7.6,2.1,10.6c2.1,2.9,6.1,4.5,9.6,4.5c3.4,0,7.1-1.6,9.3-4.2c2.5-3,2.3-7.2,2.3-10.9v-28.3h5.3v29.7
		c0,5.2-0.4,9.3-4.2,13.2c-3.3,3.5-8,5.4-12.8,5.4c-4.5,0-9.1-1.7-12.3-4.9c-4.2-4-4.7-8.3-4.7-13.7v-29.7h5.3V395.4z"/>
	<path d="M108.9,367.1h6l9.7,17.9l9.7-17.9h6l-12.9,22.9l14,24.6h-6l-10.9-19.5l-10.9,19.5h-6l14-24.6L108.9,367.1z"/>
	<path d="M154.7,367.1h24.6v4.9H160v14.1h18.8v4.9H160v18.6h19.3v4.9h-24.6V367.1z"/>
	<path d="M202.1,364.4l17.3,39.9l17.3-39.9l9.6,50.2h-5.4l-6.1-32.1h-0.1l-15.3,34.1l-15.2-34.1H204l-6.1,32.1h-5.4L202.1,364.4z"/>
	<path d="M259.9,367.1h7.8c8.6,0,15.9,3.2,15.9,12.9c0,3.8-1.4,7.1-4.7,9.3c5.7,1.4,9,6.5,9,12.2c0,9.5-7.6,13.2-17,13.2h-11V367.1z
		 M265.2,388h2c6,0,11.1-0.7,11.1-8.1c0-7.2-4.5-7.9-11-7.9h-2.1V388z M265.2,409.7h5.3c5.9,0,12.2-1.4,12.2-8.7
		c0-7.4-7.1-8.4-12.9-8.4h-4.6V409.7z"/>
	<path d="M350.4,390.9c0,13.7-11.2,24.5-24.8,24.5c-13.5,0-24.8-10.8-24.8-24.5c0-13.6,11.2-24.6,24.8-24.6
		C339.2,366.3,350.4,377.3,350.4,390.9z M306.2,390.9c0,10.7,8.7,19.7,19.5,19.7c10.8,0,19.5-8.9,19.5-19.7
		c0-10.8-8.6-19.7-19.5-19.7C314.8,371.2,306.2,380.1,306.2,390.9z"/>
	<path d="M370.3,395.4c0,3.5-0.1,7.6,2.1,10.6c2.1,2.9,6.1,4.5,9.6,4.5c3.4,0,7.1-1.6,9.3-4.2c2.5-3,2.3-7.2,2.3-10.9v-28.3h5.3
		v29.7c0,5.2-0.4,9.3-4.2,13.2c-3.3,3.5-8,5.4-12.8,5.4c-4.5,0-9.1-1.7-12.3-4.9c-4.2-4-4.7-8.3-4.7-13.7v-29.7h5.3V395.4z"/>
	<path d="M421.2,414.6h-5.3v-47.5h6.9c9,0,17.4,2.4,17.4,13.1c0,7.3-4.6,12.5-11.9,13.1l15.1,21.3h-6.5l-14.4-20.9h-1.3V414.6z
		 M421.2,389.1h1.6c6,0,12-1.1,12-8.5c0-7.8-5.7-8.6-12.1-8.6h-1.6V389.1z"/>
	<path d="M501.7,390.7c0.1,6.4-0.6,11.7-4.9,16.8c-4.3,5-11,7.9-17.6,7.9c-13.4,0-24.4-11.1-24.4-24.4c0-13.6,11.1-24.7,24.8-24.7
		c8.3,0,15.1,3.7,20.1,10.3l-3.8,3.6c-4-5.6-9.3-8.9-16.3-8.9c-10.8,0-19.4,9.1-19.4,19.8c0,5,2,9.8,5.5,13.4c3.5,3.5,8.5,6,13.5,6
		c8.3,0,16.9-6,16.9-14.9H482v-4.9H501.7z"/>
</g>
<g>
	<path class="st0" d="M171.2,249.4c9.3-13.7,14.8-30.3,14.8-48.1c0-33.9-19.7-63.2-48.2-77.1c-9.3,13.7-14.8,30.3-14.8,48.1
		C123,206.1,142.7,235.4,171.2,249.4z M137.4,123.9c0.1,0.1,0.2,0.1,0.4,0.2c15.3-22.6,41.1-37.4,70.4-37.6h0.7
		c21.5,0.2,41.1,8.2,56.1,21.5 M137.4,123.9c-11.2-5.4-23.8-8.4-37.2-8.4c-47.4,0-85.7,38.4-85.7,85.8c0,4,0.3,7.9,0.8,11.8
		c0,0,0.8,7.9,11.4,42l16.2,60.2l4.7,17.3"/>
	<path class="st0" d="M407,172.2c0-17.8-5.5-34.4-14.8-48.1C363.6,138,344,167.3,344,201.2c0,17.8,5.5,34.4,14.8,48.1
		C387.3,235.4,407,206.1,407,172.2z M265,108c15-13.2,34.6-21.3,56.1-21.5h0.7c29.3,0.2,55.1,15.1,70.4,37.6
		c0.1-0.1,0.2-0.1,0.4-0.2 M482.5,332.5l4.7-17.3l16.2-60.2c10.5-34.2,11.4-42,11.4-42c0.5-3.9,0.8-7.8,0.8-11.8
		c0-47.4-38.4-85.8-85.8-85.8c-13.3,0-25.9,3-37.2,8.4"/>
	<circle class="st0" cx="265" cy="40.5" r="28.5"/>
	<path class="st0" d="M265,108c-17.8,15.7-29,38.7-29,64.3s11.2,48.5,29,64.3c17.8-15.7,29-38.7,29-64.3S282.8,123.7,265,108"/>
</g>
</svg>
